<svg xmlns="http://www.w3.org/2000/svg" xmlns:xlink="http://www.w3.org/1999/xlink" width="25.654mm" height="17.78mm" viewBox="4040 3040 101 70"><title></title><style type="text/css">
*[layerid="1"] {stroke:#000000;fill:#000000;}
*[layerid="2"] {stroke:#000000;fill:#000000;}
*[layerid="3"] {stroke:#000000;fill:#000000;}
*[layerid="4"] {stroke:#000000;fill:#000000;}
*[layerid="5"] {stroke:#000000;fill:#000000;}
*[layerid="6"] {stroke:#000000;fill:#000000;}
*[layerid="7"] {stroke:#000000;fill:#000000;}
*[layerid="8"] {stroke:#000000;fill:#000000;}
*[layerid="9"] {stroke:#000000;fill:#000000;}
*[layerid="10"] {stroke:#000000;fill:#000000;}
*[layerid="11"] {stroke:#000000;fill:#000000;}
*[layerid="12"] {stroke:#000000;fill:#000000;}
*[layerid="13"] {stroke:#000000;fill:#000000;}
*[layerid="14"] {stroke:#000000;fill:#000000;}
*[layerid="15"] {stroke:#000000;fill:#000000;}
*[layerid="19"] {stroke:#000000;fill:#000000;}
*[layerid="21"] {stroke:#000000;fill:#000000;}
*[layerid="22"] {stroke:#000000;fill:#000000;}
*[layerid="23"] {stroke:#000000;fill:#000000;}
*[layerid="24"] {stroke:#000000;fill:#000000;}
*[layerid="25"] {stroke:#000000;fill:#000000;}
*[layerid="26"] {stroke:#000000;fill:#000000;}
*[layerid="27"] {stroke:#000000;fill:#000000;}
*[layerid="28"] {stroke:#000000;fill:#000000;}
*[layerid="29"] {stroke:#000000;fill:#000000;}
*[layerid="30"] {stroke:#000000;fill:#000000;}
*[layerid="31"] {stroke:#000000;fill:#000000;}
*[layerid="32"] {stroke:#000000;fill:#000000;}
*[layerid="33"] {stroke:#000000;fill:#000000;}
*[layerid="34"] {stroke:#000000;fill:#000000;}
*[layerid="35"] {stroke:#000000;fill:#000000;}
*[layerid="36"] {stroke:#000000;fill:#000000;}
*[layerid="37"] {stroke:#000000;fill:#000000;}
*[layerid="38"] {stroke:#000000;fill:#000000;}
*[layerid="39"] {stroke:#000000;fill:#000000;}
*[layerid="40"] {stroke:#000000;fill:#000000;}
*[layerid="41"] {stroke:#000000;fill:#000000;}
*[layerid="42"] {stroke:#000000;fill:#000000;}
*[layerid="43"] {stroke:#000000;fill:#000000;}
*[layerid="44"] {stroke:#000000;fill:#000000;}
*[layerid="45"] {stroke:#000000;fill:#000000;}
*[layerid="46"] {stroke:#000000;fill:#000000;}
*[layerid="47"] {stroke:#000000;fill:#000000;}
*[layerid="48"] {stroke:#000000;fill:#000000;}
*[layerid="49"] {stroke:#000000;fill:#000000;}
*[layerid="50"] {stroke:#000000;fill:#000000;}
*[layerid="51"] {stroke:#000000;fill:#000000;}
*[layerid="52"] {stroke:#000000;fill:#000000;}
*[layerid="99"] {stroke:#000000;fill:#000000;}
*[layerid="100"] {stroke:#000000;fill:#000000;}
*[layerid="Hole"] {stroke:#000000;fill:#000000;}
*[layerid="DRCError"] {stroke:#000000;fill:#000000;}
*[fill="none"] {fill: none;}
*[stroke="none"] {stroke: none;}
path, polyline, polygon, line {stroke-linecap:round;}
g[c_partid="part_pad"][layerid="1"] ellipse:not([c_etype="pad_outer"]) {fill:#000000;}
g[c_partid="part_pad"][layerid="1"] polygon:not([c_etype="pad_outer"]) {fill:#000000;}
g[c_partid="part_pad"][layerid="1"] polyline:not([c_etype="pad_outer"]) {stroke:#000000;}
g[c_partid="part_pad"][layerid="2"] ellipse:not([c_etype="pad_outer"]) {fill:#000000;}
g[c_partid="part_pad"][layerid="2"] polygon:not([c_etype="pad_outer"]) {fill:#000000;}
g[c_partid="part_pad"][layerid="2"] polyline:not([c_etype="pad_outer"]) {stroke:#000000;}
g[c_partid="part_pad"][layerid="11"] ellipse:not([c_etype="pad_outer"]) {fill:#000000;}
g[c_partid="part_pad"][layerid="11"] polygon:not([c_etype="pad_outer"]) {fill:#000000;}
g[c_partid="part_pad"][layerid="11"] polyline:not([c_etype="pad_outer"]) {stroke:#000000;}
g[c_partid="part_pad"][layerid="11"] circle {fill:#FFFFFF;}
g[c_partid="part_pad"][layerid="11"] > polyline:nth-of-type(2) {stroke:#FFFFFF;}
g[c_partid="part_pad"][layerid="11"][c_shape="ELLIPSE"]  polyline:nth-last-of-type(1) {stroke:#FFFFFF;}
g[c_partid="part_pad"][layerid="11"][c_shape="RECT"]  polyline:nth-last-of-type(1) {stroke:#FFFFFF;}
g[c_partid="part_pad"][layerid="11"][c_shape="POLYGON"]  polyline:nth-last-of-type(1) {stroke:#FFFFFF;}
g[c_partid="part_via"] > * + circle, #gCurParts g[c_partid="part_via"] > * + circle {fill:#FFFFFF;}
g[c_partid="part_pad"] > polygon[c_etype="pad_outer"], #gCurParts g[c_partid="part_pad"] > polygon[c_etype="pad_outer"] {stroke-linejoin: miter;stroke-miterlimit: 100;}
g[c_partid="part_hole"] > circle {fill: #FFFFFF;}path, polyline, polygon {stroke-linejoin:round;}
rect, circle, ellipse, polyline, line, polygon, path {shape-rendering:crispEdges;}
</style>
<rect x="4040" y="3040" width="101" height="70" fill="#FFFFFF" stroke="none"/><polyline points="4055 3095 4055 3087 4062 3080 4100 3080 4100.5 3080.5" stroke-width="1"  stroke-linecap="round" fill="none" layerid="1" net="GND" id="gge119" locked="0" /><polyline points="4080 3055 4069 3055 4059 3065 4063 3069 4064 3070 4067 3070 4073 3076 4100 3076 4100.5 3075.5" stroke-width="1"  stroke-linecap="round" fill="none" layerid="1" net="R1_2" id="gge118" locked="0" /><polyline points="4065 3085 4080 3085 4080 3095" stroke-width="1"  stroke-linecap="round" fill="none" layerid="1" net="R1_1" id="gge117" locked="0" /><polyline points="4055 3055 4055 3065 4065 3075" stroke-width="1"  stroke-linecap="round" fill="none" layerid="1" net="VCC" id="gge116" locked="0" /><polyline points="4100.5 3070.5 4070.5 3070.5 4065 3065" stroke-width="1"  stroke-linecap="round" fill="none" layerid="1" net="Q1_3" id="gge115" locked="0" /><polyline points="4119 3071 4101 3071 4100.5 3070.5" stroke-width="1"  stroke-linecap="round" fill="none" layerid="1" net="Q1_3" id="gge114" locked="0" /><polyline points="4119 3081 4101 3081 4100.5 3080.5" stroke-width="1"  stroke-linecap="round" fill="none" layerid="1" net="GND" id="gge113" locked="0" /><polyline points="4125 3095 4125 3081 4119 3081" stroke-width="1"  stroke-linecap="round" fill="none" layerid="1" net="GND" id="gge112" locked="0" /><polyline points="4125 3055 4125 3071 4119 3071" stroke-width="1"  stroke-linecap="round" fill="none" layerid="1" net="Q1_3" id="gge111" locked="0" /><g c_partid="part_pcbtext" c_etype="" c_origin="4095,3056.36" c_rotation="0" c_mirror="0" id="gge125" locked="0" layerid="1" c_shapetype="group" ><path c_fontsize="8" c_fontfamily="" c_text="+out" d="M 4098.27 3053.0901 L 4098.27 3059.6301 M 4095 3056.3601 L 4101.55 3056.3601 M 4105.76 3054.5401 L 4105.04 3054.9101 L 4104.31 3055.6301 L 4103.95 3056.7201 L 4103.95 3057.4501 L 4104.31 3058.5401 L 4105.04 3059.2701 L 4105.76 3059.6301 L 4106.85 3059.6301 L 4107.58 3059.2701 L 4108.31 3058.5401 L 4108.67 3057.4501 L 4108.67 3056.7201 L 4108.31 3055.6301 L 4107.58 3054.9101 L 4106.85 3054.5401 L 4105.76 3054.5401 M 4111.07 3054.5401 L 4111.07 3058.1801 L 4111.44 3059.2701 L 4112.16 3059.6301 L 4113.25 3059.6301 L 4113.98 3059.2701 L 4115.07 3058.1801 M 4115.07 3054.5401 L 4115.07 3059.6301 M 4118.56 3052.0001 L 4118.56 3058.1801 L 4118.93 3059.2701 L 4119.65 3059.6301 L 4120.38 3059.6301 M 4117.47 3054.5401 L 4120.02 3054.5401" fill="none"  stroke-width="0.8"  /></g><g c_partid="part_pcbtext" c_etype="" c_origin="4095,3094.36" c_rotation="0" c_mirror="0" id="gge127" locked="0" layerid="1" c_shapetype="group" ><path c_fontsize="8" c_fontfamily="" c_text="-out" d="M 4095 3094.3601 L 4101.55 3094.3601 M 4105.76 3092.5401 L 4105.04 3092.9101 L 4104.31 3093.6301 L 4103.95 3094.7201 L 4103.95 3095.4501 L 4104.31 3096.5401 L 4105.04 3097.2701 L 4105.76 3097.6301 L 4106.85 3097.6301 L 4107.58 3097.2701 L 4108.31 3096.5401 L 4108.67 3095.4501 L 4108.67 3094.7201 L 4108.31 3093.6301 L 4107.58 3092.9101 L 4106.85 3092.5401 L 4105.76 3092.5401 M 4111.07 3092.5401 L 4111.07 3096.1801 L 4111.44 3097.2701 L 4112.16 3097.6301 L 4113.25 3097.6301 L 4113.98 3097.2701 L 4115.07 3096.1801 M 4115.07 3092.5401 L 4115.07 3097.6301 M 4118.56 3090.0001 L 4118.56 3096.1801 L 4118.93 3097.2701 L 4119.65 3097.6301 L 4120.38 3097.6301 M 4117.47 3092.5401 L 4120.02 3092.5401" fill="none"  stroke-width="0.8"  /></g><g c_partid="part_pcbtext" c_etype="" c_origin="4057,3097" c_rotation="0" c_mirror="0" id="gge129" locked="0" layerid="1" c_shapetype="group" ><path c_fontsize="8" c_fontfamily="" c_text="-" d="M 4057 3097 L 4063.55 3097" fill="none"  stroke-width="0.8"  /></g><g c_partid="part_pcbtext" c_etype="" c_origin="4058,3054.27" c_rotation="0" c_mirror="0" id="gge131" locked="0" layerid="1" c_shapetype="group" ><path c_fontsize="8" c_fontfamily="" c_text="+" d="M 4061.27 3051 L 4061.27 3057.54 M 4058 3054.27 L 4064.55 3054.27" fill="none"  stroke-width="0.8"  /></g><g c_partid="part_pad" c_etype="pinpart" c_origin="4055,3055" layerid="11" number="11" net="VCC" plated ="Y"  id="gge97" locked="0" c_rotation="0" c_width="6" c_height="6" title="VCC" c_shape="ELLIPSE" pasteexpansion="0" solderexpansion="0.4"><ellipse c_etype="pad_shell" cx="4055" cy="3055" rx="3" ry="3" layerid="11" stroke-width="0"/><circle c_etype="pad_hole" cx="4055" cy="3055" r="1.8" layerid="11" stroke-width="0"/></g><g c_partid="part_pad" c_etype="pinpart" c_origin="4055,3095" layerid="11" number="12" net="GND" plated ="Y"  id="gge100" locked="0" c_rotation="0" c_width="6" c_height="6" title="GND" c_shape="ELLIPSE" pasteexpansion="0" solderexpansion="0.4"><ellipse c_etype="pad_shell" cx="4055" cy="3095" rx="3" ry="3" layerid="11" stroke-width="0"/><circle c_etype="pad_hole" cx="4055" cy="3095" r="1.8" layerid="11" stroke-width="0"/></g><g c_partid="part_pad" c_etype="pinpart" c_origin="4125,3095" layerid="11" number="13" net="GND" plated ="Y"  id="gge103" locked="0" c_rotation="0" c_width="6" c_height="6" title="GND" c_shape="ELLIPSE" pasteexpansion="0" solderexpansion="0.4"><ellipse c_etype="pad_shell" cx="4125" cy="3095" rx="3" ry="3" layerid="11" stroke-width="0"/><circle c_etype="pad_hole" cx="4125" cy="3095" r="1.8" layerid="11" stroke-width="0"/></g><g c_partid="part_pad" c_etype="pinpart" c_origin="4125,3055" layerid="11" number="14" net="Q1_3" plated ="Y"  id="gge106" locked="0" c_rotation="0" c_width="6" c_height="6" title="Q1_3" c_shape="ELLIPSE" pasteexpansion="0" solderexpansion="0.4"><ellipse c_etype="pad_shell" cx="4125" cy="3055" rx="3" ry="3" layerid="11" stroke-width="0"/><circle c_etype="pad_hole" cx="4125" cy="3055" r="1.8" layerid="11" stroke-width="0"/></g><g c_partid="part_pad" c_etype="pinpart" c_origin="4080,3095" layerid="11" number="1" net="R1_1" plated ="Y"  id="gge9" locked="0" c_rotation="90" c_width="7.4" c_height="7.4" title="R1_1" c_shape="ELLIPSE" pasteexpansion="0" solderexpansion="0.4"><ellipse c_etype="pad_shell" cx="4080" cy="3095" rx="3.7" ry="3.7" layerid="11" stroke-width="0"/><circle c_etype="pad_hole" cx="4080" cy="3095" r="1.77" layerid="11" stroke-width="0"/></g><g c_partid="part_pad" c_etype="pinpart" c_origin="4080,3055" layerid="11" number="2" net="R1_2" plated ="Y"  id="gge12" locked="0" c_rotation="90" c_width="7.4" c_height="7.4" title="R1_2" c_shape="ELLIPSE" pasteexpansion="0" solderexpansion="0.4"><ellipse c_etype="pad_shell" cx="4080" cy="3055" rx="3.7" ry="3.7" layerid="11" stroke-width="0"/><circle c_etype="pad_hole" cx="4080" cy="3055" r="1.77" layerid="11" stroke-width="0"/></g><g c_partid="part_pad" c_etype="pinpart" c_origin="4100.5,3080.5" layerid="11" number="1" net="GND" plated ="Y"  id="gge21" locked="0" c_rotation="0" c_width="7.874" c_height="3.937" title="GND" c_shape="OVAL" pasteexpansion="0" solderexpansion="0.4"><polyline  c_etype="pad_shell" points="4098.5315 3080.5 4102.4685 3080.5" layerid="11" stroke-width="3.937" /><circle c_etype="pad_hole" cx="4100.5" cy="3080.5" r="1.378" layerid="11" stroke-width="0"/></g><g c_partid="part_pad" c_etype="pinpart" c_origin="4100.5,3075.5" layerid="11" number="2" net="R1_2" plated ="Y"  id="gge24" locked="0" c_rotation="0" c_width="7.874" c_height="3.937" title="R1_2" c_shape="OVAL" pasteexpansion="0" solderexpansion="0.4"><polyline  c_etype="pad_shell" points="4098.5315 3075.5 4102.4685 3075.5" layerid="11" stroke-width="3.937" /><circle c_etype="pad_hole" cx="4100.5" cy="3075.5" r="1.378" layerid="11" stroke-width="0"/></g><g c_partid="part_pad" c_etype="pinpart" c_origin="4100.5,3070.5" layerid="11" number="3" net="Q1_3" plated ="Y"  id="gge27" locked="0" c_rotation="0" c_width="7.874" c_height="3.937" title="Q1_3" c_shape="OVAL" pasteexpansion="0" solderexpansion="0.4"><polyline  c_etype="pad_shell" points="4098.5315 3070.5 4102.4685 3070.5" layerid="11" stroke-width="3.937" /><circle c_etype="pad_hole" cx="4100.5" cy="3070.5" r="1.378" layerid="11" stroke-width="0"/></g><g c_partid="part_pad" c_etype="pinpart" c_origin="4119,3071" layerid="11" number="1" net="Q1_3" plated ="Y"  id="gge35" locked="0" c_rotation="90" c_width="6.5" c_height="6.5" title="Q1_3" c_shape="ELLIPSE" pasteexpansion="0" solderexpansion="0.4"><ellipse c_etype="pad_shell" cx="4119" cy="3071" rx="3.25" ry="3.25" layerid="11" stroke-width="0"/><circle c_etype="pad_hole" cx="4119" cy="3071" r="1.9" layerid="11" stroke-width="0"/></g><g c_partid="part_pad" c_etype="pinpart" c_origin="4119,3081" layerid="11" number="2" net="GND" plated ="Y"  id="gge38" locked="0" c_rotation="90" c_width="6.5" c_height="6.5" title="GND" c_shape="ELLIPSE" pasteexpansion="0" solderexpansion="0.4"><ellipse c_etype="pad_shell" cx="4119" cy="3081" rx="3.25" ry="3.25" layerid="11" stroke-width="0"/><circle c_etype="pad_hole" cx="4119" cy="3081" r="1.9" layerid="11" stroke-width="0"/></g><g c_partid="part_pad" c_etype="pinpart" c_origin="4065,3065" layerid="11" number="3" net="Q1_3" plated ="Y"  id="gge48" locked="0" c_rotation="90" c_width="6.2" c_height="6.2" title="Q1_3" c_shape="ELLIPSE" pasteexpansion="0" solderexpansion="0.4"><ellipse c_etype="pad_shell" cx="4065" cy="3065" rx="3.1" ry="3.1" layerid="11" stroke-width="0"/><circle c_etype="pad_hole" cx="4065" cy="3065" r="1.75" layerid="11" stroke-width="0"/></g><g c_partid="part_pad" c_etype="pinpart" c_origin="4065,3075" layerid="11" number="2" net="VCC" plated ="Y"  id="gge51" locked="0" c_rotation="90" c_width="6.2" c_height="6.2" title="VCC" c_shape="ELLIPSE" pasteexpansion="0" solderexpansion="0.4"><ellipse c_etype="pad_shell" cx="4065" cy="3075" rx="3.1" ry="3.1" layerid="11" stroke-width="0"/><circle c_etype="pad_hole" cx="4065" cy="3075" r="1.75" layerid="11" stroke-width="0"/></g><g c_partid="part_pad" c_etype="pinpart" c_origin="4065,3085" layerid="11" number="1" net="R1_1" plated ="Y"  id="gge54" locked="0" c_rotation="90" c_width="6.2" c_height="6.2" title="R1_1" c_shape="RECT" pasteexpansion="0" solderexpansion="0.4"><polygon  c_etype="pad_shell" points="4061.9 3088.1 4061.9 3081.9 4068.1 3081.9 4068.1 3088.1" layerid="11" stroke-width="0" /><circle c_etype="pad_hole" cx="4065" cy="3085" r="1.75" layerid="11" stroke-width="0"/></g><polyline points="4084.7 3087.4 4075.3 3087.4" stroke-width="1"  stroke-linecap="round" fill="none" layerid="3" net="" id="gge5" locked="0" /><polyline points="4075.3 3087.4 4075.3 3062.6" stroke-width="1"  stroke-linecap="round" fill="none" layerid="3" net="" id="gge6" locked="0" /><polyline points="4075.3 3062.6 4084.7 3062.6" stroke-width="1"  stroke-linecap="round" fill="none" layerid="3" net="" id="gge7" locked="0" /><polyline points="4084.7 3062.6 4084.7 3087.4" stroke-width="1"  stroke-linecap="round" fill="none" layerid="3" net="" id="gge8" locked="0" /><polyline points="4106.405 3067.705 4106.405 3083.295" stroke-width="1"  stroke-linecap="round" fill="none" layerid="3" net="" id="gge20" locked="0" /><polyline points="4113.882 3084.779 4124.118 3084.779" stroke-width="1"  stroke-linecap="round" fill="none" layerid="3" net="" id="gge41" locked="0" /><polyline points="4060 3082.5 4060 3090 4070 3090 4070 3060 4060 3060" stroke-width="0.8"  stroke-linecap="round" fill="none" layerid="3" net="" id="gge46" locked="0" /><polyline points="4060 3060 4060 3082.5" stroke-width="0.79921"  stroke-linecap="round" fill="none" layerid="3" net="" id="gge47" locked="0" /><g c_partid="part_pcbtext" c_etype="" c_origin="4070,3075" c_rotation="90" c_mirror="0" id="gge3" locked="0" layerid="3" c_shapetype="group" display="none"><path c_fontsize="4.5" c_fontfamily="" c_text="R1" d="M 4067.55 3075 L 4071.84 3075 M 4067.55 3075 L 4067.55 3073.16 L 4067.75 3072.55 L 4067.95 3072.34 L 4068.36 3072.14 L 4068.77 3072.14 L 4069.18 3072.34 L 4069.39 3072.55 L 4069.59 3073.16 L 4069.59 3075 M 4069.59 3073.57 L 4071.84 3072.14 M 4068.36 3070.79 L 4068.16 3070.38 L 4067.55 3069.76 L 4071.84 3069.76" fill="none"  stroke-width="0.7" c_note="note_pre" /></g><g c_partid="part_pcbtext" c_etype="" c_origin="4078,3075" c_rotation="90" c_mirror="false" id="rep2" locked="0" layerid="3" c_shapetype="group" display="none"><path c_fontsize="4.5" c_fontfamily="" c_text="1k" d="M 4074.28 3075L4074.07 3074.59 L4073.46 3073.98 L4077.75 3073.98 M 4073.46 3072.63L4077.75 3072.63 M 4074.89 3070.58L4076.94 3072.63 M 4076.12 3071.81L4077.75 3070.38 " fill="none"  stroke-width="0.7" c_note="note_name" /></g><g c_partid="part_pcbtext" c_etype="" c_origin="4099,3090" c_rotation="0" c_mirror="0" id="gge17" locked="0" layerid="3" c_shapetype="group" display="none"><path c_fontsize="4.5" c_fontfamily="" c_text="1k" d="M 4099 3088.36 L 4099.41 3088.16 L 4100.02 3087.55 L 4100.02 3091.84 M 4101.37 3087.55 L 4101.37 3091.84 M 4103.42 3088.98 L 4101.37 3091.02 M 4102.19 3090.2 L 4103.62 3091.84" fill="none"  stroke-width="0.7" c_note="note_pre" /></g><g c_partid="part_pcbtext" c_etype="" c_origin="4099,3082" c_rotation="0" c_mirror="false" id="rep3" locked="0" layerid="3" c_shapetype="group" display="none"><path c_fontsize="4.5" c_fontfamily="" c_text="NPN" d="M 4099 3077.46L4099 3081.75 M 4099 3077.46L4101.86 3081.75 M 4101.86 3077.46L4101.86 3081.75 M 4103.21 3077.46L4103.21 3081.75 M 4103.21 3077.46L4105.05 3077.46 L4105.67 3077.66 L4105.87 3077.87 L4106.08 3078.28 L4106.08 3078.89 L4105.87 3079.3 L4105.67 3079.5 L4105.05 3079.71 L4103.21 3079.71 M 4107.43 3077.46L4107.43 3081.75 M 4107.43 3077.46L4110.29 3081.75 M 4110.29 3077.46L4110.29 3081.75 " fill="none"  stroke-width="0.7" c_note="note_name" /></g><g c_partid="part_pcbtext" c_etype="" c_origin="4119,3060.62" c_rotation="0" c_mirror="0" id="gge32" locked="0" layerid="3" c_shapetype="group" display="none"><path c_fontsize="4.5" c_fontfamily="" c_text="LED1" d="M 4119 3058.1681 L 4119 3062.4581 M 4119 3062.4581 L 4121.45 3062.4581 M 4122.8 3058.1681 L 4122.8 3062.4581 M 4122.8 3058.1681 L 4125.46 3058.1681 M 4122.8 3060.2081 L 4124.44 3060.2081 M 4122.8 3062.4581 L 4125.46 3062.4581 M 4126.81 3058.1681 L 4126.81 3062.4581 M 4126.81 3058.1681 L 4128.25 3058.1681 L 4128.86 3058.3681 L 4129.27 3058.7781 L 4129.47 3059.1881 L 4129.68 3059.7981 L 4129.68 3060.8181 L 4129.47 3061.4381 L 4129.27 3061.8481 L 4128.86 3062.2581 L 4128.25 3062.4581 L 4126.81 3062.4581 M 4131.03 3058.9781 L 4131.44 3058.7781 L 4132.05 3058.1681 L 4132.05 3062.4581" fill="none"  stroke-width="0.7" c_note="note_pre" /></g><g c_partid="part_pcbtext" c_etype="" c_origin="4119,3052.62" c_rotation="0" c_mirror="false" id="rep4" locked="0" layerid="3" c_shapetype="group" display="none"><path c_fontsize="4.5" c_fontfamily="" c_text="LED-5MM" d="M 4119 3048.08L4119 3052.37 M 4119 3052.37L4121.45 3052.37 M 4122.8 3048.08L4122.8 3052.37 M 4122.8 3048.08L4125.46 3048.08 M 4122.8 3050.12L4124.44 3050.12 M 4122.8 3052.37L4125.46 3052.37 M 4126.81 3048.08L4126.81 3052.37 M 4126.81 3048.08L4128.25 3048.08 L4128.86 3048.28 L4129.27 3048.69 L4129.47 3049.1 L4129.68 3049.72 L4129.68 3050.74 L4129.47 3051.35 L4129.27 3051.76 L4128.86 3052.17 L4128.25 3052.37 L4126.81 3052.37 M 4131.03 3050.53L4134.71 3050.53 M 4138.51 3048.08L4136.47 3048.08 L4136.26 3049.92 L4136.47 3049.72 L4137.08 3049.51 L4137.7 3049.51 L4138.31 3049.72 L4138.72 3050.12 L4138.92 3050.74 L4138.92 3051.15 L4138.72 3051.76 L4138.31 3052.17 L4137.7 3052.37 L4137.08 3052.37 L4136.47 3052.17 L4136.26 3051.97 L4136.06 3051.56 M 4140.27 3048.08L4140.27 3052.37 M 4140.27 3048.08L4141.91 3052.37 M 4143.55 3048.08L4141.91 3052.37 M 4143.55 3048.08L4143.55 3052.37 M 4144.9 3048.08L4144.9 3052.37 M 4144.9 3048.08L4146.53 3052.37 M 4148.17 3048.08L4146.53 3052.37 M 4148.17 3048.08L4148.17 3052.37 " fill="none"  stroke-width="0.7" c_note="note_name" /></g><g c_partid="part_pcbtext" c_etype="" c_origin="4055,3075" c_rotation="90" c_mirror="0" id="gge44" locked="0" layerid="3" c_shapetype="group" display="none"><path c_fontsize="4.5" c_fontfamily="" c_text="P1" d="M 4052.55 3075 L 4056.84 3075 M 4052.55 3075 L 4052.55 3073.16 L 4052.75 3072.55 L 4052.95 3072.34 L 4053.36 3072.14 L 4053.98 3072.14 L 4054.39 3072.34 L 4054.59 3072.55 L 4054.8 3073.16 L 4054.8 3075 M 4053.36 3070.79 L 4053.16 3070.38 L 4052.55 3069.76 L 4056.84 3069.76" fill="none"  stroke-width="0.7" c_note="note_pre" /></g><g c_partid="part_pcbtext" c_etype="" c_origin="4063,3075" c_rotation="90" c_mirror="false" id="rep5" locked="0" layerid="3" c_shapetype="group" display="none"><path c_fontsize="4.5" c_fontfamily="" c_text="Header2.54mm 1*3P" d="M 4058.46 3075L4062.75 3075 M 4058.46 3072.14L4062.75 3072.14 M 4060.5 3075L4060.5 3072.14 M 4061.12 3070.79L4061.12 3068.33 L4060.71 3068.33 L4060.3 3068.54 L4060.1 3068.74 L4059.89 3069.15 L4059.89 3069.76 L4060.1 3070.17 L4060.5 3070.58 L4061.12 3070.79 L4061.53 3070.79 L4062.14 3070.58 L4062.55 3070.17 L4062.75 3069.76 L4062.75 3069.15 L4062.55 3068.74 L4062.14 3068.33 M 4059.89 3064.53L4062.75 3064.53 M 4060.5 3064.53L4060.1 3064.94 L4059.89 3065.35 L4059.89 3065.96 L4060.1 3066.37 L4060.5 3066.78 L4061.12 3066.98 L4061.53 3066.98 L4062.14 3066.78 L4062.55 3066.37 L4062.75 3065.96 L4062.75 3065.35 L4062.55 3064.94 L4062.14 3064.53 M 4058.46 3060.72L4062.75 3060.72 M 4060.5 3060.72L4060.1 3061.13 L4059.89 3061.54 L4059.89 3062.15 L4060.1 3062.56 L4060.5 3062.97 L4061.12 3063.18 L4061.53 3063.18 L4062.14 3062.97 L4062.55 3062.56 L4062.75 3062.15 L4062.75 3061.54 L4062.55 3061.13 L4062.14 3060.72 M 4061.12 3059.37L4061.12 3056.92 L4060.71 3056.92 L4060.3 3057.12 L4060.1 3057.33 L4059.89 3057.74 L4059.89 3058.35 L4060.1 3058.76 L4060.5 3059.17 L4061.12 3059.37 L4061.53 3059.37 L4062.14 3059.17 L4062.55 3058.76 L4062.75 3058.35 L4062.75 3057.74 L4062.55 3057.33 L4062.14 3056.92 M 4059.89 3055.57L4062.75 3055.57 M 4061.12 3055.57L4060.5 3055.36 L4060.1 3054.95 L4059.89 3054.55 L4059.89 3053.93 M 4059.48 3052.38L4059.28 3052.38 L4058.87 3052.17 L4058.66 3051.97 L4058.46 3051.56 L4058.46 3050.74 L4058.66 3050.33 L4058.87 3050.13 L4059.28 3049.92 L4059.69 3049.92 L4060.1 3050.13 L4060.71 3050.54 L4062.75 3052.58 L4062.75 3049.72 M 4061.73 3048.16L4061.94 3048.37 L4062.14 3048.16 L4061.94 3047.96 L4061.73 3048.16 M 4058.46 3044.15L4058.46 3046.2 L4060.3 3046.4 L4060.1 3046.2 L4059.89 3045.59 L4059.89 3044.97 L4060.1 3044.36 L4060.5 3043.95 L4061.12 3043.75 L4061.53 3043.75 L4062.14 3043.95 L4062.55 3044.36 L4062.75 3044.97 L4062.75 3045.59 L4062.55 3046.2 L4062.35 3046.4 L4061.94 3046.61 M 4058.46 3040.35L4061.32 3042.4 L4061.32 3039.33 M 4058.46 3040.35L4062.75 3040.35 M 4059.89 3037.98L4062.75 3037.98 M 4060.71 3037.98L4060.1 3037.36 L4059.89 3036.95 L4059.89 3036.34 L4060.1 3035.93 L4060.71 3035.73 L4062.75 3035.73 M 4060.71 3035.73L4060.1 3035.11 L4059.89 3034.7 L4059.89 3034.09 L4060.1 3033.68 L4060.71 3033.48 L4062.75 3033.48 M 4059.89 3032.13L4062.75 3032.13 M 4060.71 3032.13L4060.1 3031.51 L4059.89 3031.1 L4059.89 3030.49 L4060.1 3030.08 L4060.71 3029.88 L4062.75 3029.88 M 4060.71 3029.88L4060.1 3029.26 L4059.89 3028.85 L4059.89 3028.24 L4060.1 3027.83 L4060.71 3027.63 L4062.75 3027.63 M 4059.28 3023.13L4059.07 3022.72 L4058.46 3022.1 L4062.75 3022.1 M 4059.69 3019.73L4062.14 3019.73 M 4060.3 3020.75L4061.53 3018.71 M 4060.3 3018.71L4061.53 3020.75 M 4058.46 3016.95L4058.46 3014.7 L4060.1 3015.93 L4060.1 3015.31 L4060.3 3014.9 L4060.5 3014.7 L4061.12 3014.5 L4061.53 3014.5 L4062.14 3014.7 L4062.55 3015.11 L4062.75 3015.72 L4062.75 3016.34 L4062.55 3016.95 L4062.35 3017.15 L4061.94 3017.36 M 4058.46 3013.15L4062.75 3013.15 M 4058.46 3013.15L4058.46 3011.3 L4058.66 3010.69 L4058.87 3010.49 L4059.28 3010.28 L4059.89 3010.28 L4060.3 3010.49 L4060.5 3010.69 L4060.71 3011.3 L4060.71 3013.15 " fill="none"  stroke-width="0.7" c_note="note_name" /></g><path d="M 4106.41 3067.7 A 9.7796 9.7796 0 1 0 4106.41 3083.3" locked="0"  fill="none" stroke-width="1" c_helper_type="arc2" net="" layerid="3" id="gge19" /><path d="M 4124.44 3084.6681 A 10.23622 10.23622 0 1 0 4113.56 3084.6681" locked="0"  fill="none" stroke-width="1" c_helper_type="arc2" net="" layerid="3" id="gge34" /><polyline points="4050 3050 4130 3050 4130 3100 4050 3100 4050 3050" stroke-width="1"  stroke-linecap="round" fill="none" layerid="10" net="$BoardOutlineNet" id="gge57" locked="0" /></svg>